#!OML:ASF E:\Mandelcareful walks\Project 1\Capture day 1\Session 1\Subject1.ASF
:FULLY-SPECIFIED
:DEGREES
927
root 9.10527 16.7368 0.482049 181.919 -71.2941 -176.419
lowerback 10.689 -1.71092 -0.372896
upperback 1.86043 -2.3425 1.18126
thorax -3.9832 -1.18395 1.7661
lowerneck -27.0156 -9.56545 -11.6262
upperneck 21.2621 -10.993 8.02729
head 12.6369 -4.80641 2.84337
rclavicle -7.68365e-014 1.9456e-014
rhumerus -26.9456 -1.32357 -75.9839
rradius 38.4942
rwrist -20.6222
rhand -11.7974 -24.5049
rfingers 7.12502
rthumb 14.2523 -53.9958
lclavicle -7.68365e-014 1.9456e-014
lhumerus -34.8993 0.208863 83.5825
lradius 33.6295
lwrist 14.2413
lhand -18.6896 -12.6233
lfingers 7.12502
lthumb 7.6048 17.22
rfemur -4.6069 -3.86779 6.51236
rtibia 9.78952
rfoot -1.82298 -23.6135
rtoes -3.24093
lfemur -9.13568 6.91785 -6.51236
ltibia 25.9024
lfoot -17.6022 20.5752
ltoes -7.28294
928
root 9.0292 16.7655 0.646441 182.018 -71.3472 -176.69
lowerback 10.2556 -1.64396 -0.455581
upperback 1.66883 -2.25457 1.12954
thorax -3.94445 -1.1348 1.7349
lowerneck -25.6261 -9.67718 -12.3771
upperneck 20.7959 -11.1912 8.65857
head 12.3165 -4.92028 3.19324
rclavicle -2.51773e-014 -3.2054e-015
rhumerus -27.8614 -1.89852 -75.7929
rradius 38.5868
rwrist -20.3157
rhand -11.5313 -24.2241
rfingers 7.12502
rthumb 14.5086 -53.6968
lclavicle -2.51773e-014 -3.2054e-015
lhumerus -35.2149 0.264101 83.6947
lradius 33.3797
lwrist 13.9038
lhand -18.6595 -12.5784
lfingers 7.12502
lthumb 7.63384 17.2638
rfemur -2.93435 -3.70064 5.73523
rtibia 7.03962
rfoot 0.0101821 -24.1911
rtoes -2.37009
lfemur -8.94937 6.95548 -7.27249
ltibia 25.9807
lfoot -18.0549 20.3339
ltoes -5.81136
929
root 8.95974 16.7913 0.818326 182.246 -71.3907 -176.965
lowerback 9.61297 -1.64583 -0.49421
upperback 1.57517 -2.25775 1.01785
thorax -3.68827 -1.13489 1.61919
lowerneck -24.7709 -9.70268 -12.6255
upperneck 20.54 -11.3192 8.95145
head 12.1131 -4.99044 3.3372
rclavicle -3.68652e-014 4.78326e-015
rhumerus -28.4376 -2.56034 -75.7386
rradius 38.3878
rwrist -19.7464
rhand -11.0824 -23.9551
rfingers 7.12502
rthumb 14.9411 -53.3962
lclavicle -3.68652e-014 4.78326e-015
lhumerus -35.3214 0.16486 83.6907
lradius 33.1978
lwrist 13.8352
lhand -18.8083 -12.5871
lfingers 7.12502
lthumb 7.49016 17.2602
rfemur -1.08934 -3.54278 4.88224
rtibia 3.63127
rfoot 2.64214 -24.8729
rtoes -2.27401
lfemur -8.86473 7.06087 -8.09385
ltibia 25.9478
lfoot -18.2554 20.1553
ltoes -4.9413
930
root 8.89192 16.8158 0.994916 182.964 -71.2995 -177.687
lowerback 9.16116 -1.63261 -0.957713
upperback 1.40067 -2.27516 1.0644
thorax -3.59808 -1.13418 1.91707
lowerneck -25.1803 -9.70592 -12.2901
upperneck 21.3661 -11.2685 8.21449
head 12.4279 -5.02087 3.00776
rclavicle -6.95746e-016 5.64051e-015
rhumerus -28.948 -2.79351 -75.5561
rradius 38.2075
rwrist -19.2643
rhand -11.1128 -24.5527
rfingers 7.12502
rthumb 14.9118 -53.9959
lclavicle -6.95746e-016 5.64051e-015
lhumerus -35.4671 0.126472 83.9394
lradius 33.0442
lwrist 13.8926
lhand -19.0991 -12.598
lfingers 7.12502
lthumb 7.20951 17.2592
rfemur 0.720798 -3.2593 3.78304
rtibia -6.36111e-015
rfoot 5.49024 -25.7715
rtoes -1.40154
lfemur -8.77546 7.17727 -9.1025
ltibia 25.8972
lfoot -18.6451 19.9631
ltoes -3.73828
931
root 8.82123 16.8321 1.17026 184.292 -71.1097 -179.132
lowerback 8.76178 -1.50423 -1.53325
upperback 1.27061 -2.15255 0.990925
thorax -3.49725 -1.06396 2.13838
lowerneck -24.7844 -9.78139 -12.6205
upperneck 21.4587 -11.3589 8.34278
head 12.4332 -5.08561 3.10047
rclavicle 2.74696e-014 -8.89561e-015
rhumerus -29.5259 -3.40544 -75.271
rradius 38.0056
rwrist -18.6706
rhand -11.1297 -25.1503
rfingers 7.12502
rthumb 14.8956 -54.5948
lclavicle 2.74696e-014 -8.89561e-015
lhumerus -35.5638 -0.321034 84.3282
lradius 32.9343
lwrist 14.259
lhand -19.4738 -12.8621
lfingers 7.12502
lthumb 6.84784 17.0071
rfemur 0.712173 -2.90819 2.5406
rtibia 1.74931e-014
rfoot 5.79155 -26.7044
rtoes 2.02555
lfemur -8.51778 7.25711 -10.35
ltibia 25.8254
lfoot -19.3395 19.7424
ltoes -1.79601
932
root 8.75692 16.8505 1.34785 184.672 -71.1501 -179.656
lowerback 8.3711 -1.43112 -1.61113
upperback 1.2504 -2.05729 0.919337
thorax -3.30499 -1.01721 2.0843
lowerneck -24.3912 -9.89356 -12.9624
upperneck 21.3968 -11.5214 8.60384
head 12.3981 -5.16607 3.23026
rclavicle -5.06155e-014 3.26007e-014
rhumerus -29.9422 -4.40612 -74.929
rradius 37.5803
rwrist -17.9366
rhand -10.7843 -24.9469
rfingers 7.12502
rthumb 15.2282 -54.3664
lclavicle -5.06155e-014 3.26007e-014
lhumerus -35.4821 -0.890597 84.6407
lradius 32.8999
lwrist 14.5731
lhand -19.529 -12.983
lfingers 7.12502
lthumb 6.7945 16.888
rfemur 0.823036 -2.7342 1.66181
rtibia 9.54166e-015
rfoot 5.96869 -27.7859
rtoes 4.65647
lfemur -8.29892 7.40237 -11.2509
ltibia 25.72
lfoot -19.6097 19.4872
ltoes -0.96721
933
root 8.69553 16.8809 1.51846 184.574 -71.0203 -179.574
lowerback 7.78674 -1.34211 -1.60629
upperback 1.27403 -1.92958 0.878869
thorax -2.96248 -0.957602 2.00687
lowerneck -24.0554 -9.94752 -13.0703
upperneck 21.2695 -11.6296 8.71415
head 12.3146 -5.22065 3.27525
rclavicle -5.91757e-014 7.25564e-015
rhumerus -30.2575 -5.44353 -74.7459
rradius 37.2084
rwrist -17.1704
rhand -10.2654 -24.5721
rfingers 7.12502
rthumb 15.7281 -53.953
lclavicle -5.91757e-014 7.25564e-015
lhumerus -35.2846 -1.42579 84.7725
lradius 32.9477
lwrist 14.6278
lhand -19.4999 -12.8578
lfingers 7.12502
lthumb 6.82258 17.0122
rfemur 0.698036 -2.41046 1.12895
rtibia -3.97569e-015
rfoot 6.10845 -28.9712
rtoes 6.80327
lfemur -8.19604 7.68669 -11.9084
ltibia 25.5528
lfoot -19.5856 19.4497
ltoes -0.952044
934
root 8.63206 16.9006 1.68646 184.626 -70.8438 -179.681
lowerback 7.31053 -1.26095 -1.72591
upperback 1.24728 -1.82222 0.853864
thorax -2.72669 -0.904653 2.02381
lowerneck -24.2802 -9.97142 -12.7256
upperneck 21.8948 -11.6286 8.03076
head 12.5263 -5.27234 2.95652
rclavicle -3.51973e-014 7.65321e-015
rhumerus -30.6893 -6.26302 -74.6383
rradius 36.9953
rwrist -16.4305
rhand -9.88594 -24.8042
rfingers 7.12502
rthumb 16.0935 -54.1559
lclavicle -3.51973e-014 7.65321e-015
lhumerus -35.2693 -1.81714 84.8727
lradius 33.109
lwrist 14.5095
lhand -19.5496 -12.6989
lfingers 7.12502
lthumb 6.77462 17.1727
rfemur 0.587151 -2.03686 0.578138
rtibia 1.19271e-014
rfoot 5.38603 -30.6632
rtoes 11.4384
lfemur -7.98828 8.01708 -12.6309
ltibia 25.4296
lfoot -19.8081 19.272
ltoes -0.503381
935
root 8.57604 16.9079 1.84812 185.303 -70.7205 -180.498
lowerback 6.95942 -1.17304 -2.17211
upperback 1.23474 -1.7309 0.847665
thorax -2.53507 -0.857135 2.2499
lowerneck -24.0068 -9.93024 -12.8856
upperneck 21.9177 -11.5538 8.02303
head 12.4856 -5.26358 3.00188
rclavicle -2.54693e-014 -3.8763e-015
rhumerus -31.168 -6.86822 -74.4272
rradius 36.832
rwrist -15.8134
rhand -9.77843 -25.3264
rfingers 7.12502
rthumb 16.197 -54.6697
lclavicle -2.54693e-014 -3.8763e-015
lhumerus -35.2052 -2.23301 85.0929
lradius 33.2274
lwrist 14.5206
lhand -19.6153 -12.8132
lfingers 7.12502
lthumb 6.71115 17.0604
rfemur 0.48901 -1.71798 -0.145063
rtibia 7.95139e-015
rfoot 4.78517 -32.424
rtoes 15.5954
lfemur -7.78092 8.29582 -13.5581
ltibia 25.3534
lfoot -20.1648 18.875
ltoes 0.119286
936
root 8.53369 16.9173 1.99962 185.193 -70.6462 -180.452
lowerback 6.60735 -1.0752 -2.38219
upperback 1.24268 -1.60453 0.941756
thorax -2.32879 -0.795197 2.44467
lowerneck -24.1731 -9.95341 -12.8955
upperneck 22.3455 -11.5191 7.73353
head 12.6614 -5.28264 2.89566
rclavicle -3.66012e-014 1.78906e-014
rhumerus -31.6758 -7.50566 -74.1087
rradius 36.6394
rwrist -15.2172
rhand -9.24925 -25.1819
rfingers 7.12502
rthumb 16.7065 -54.483
lclavicle -3.66012e-014 1.78906e-014
lhumerus -34.9644 -2.85173 85.3369
lradius 33.2662
lwrist 14.8548
lhand -19.7921 -13.1729
lfingers 7.12502
lthumb 6.54053 16.7061
rfemur 0.297257 -1.42737 -0.407415
rtibia -2.38542e-015
rfoot 4.44673 -34.1884
rtoes 18.4647
lfemur -7.70901 8.45805 -14.1162
ltibia 25.333
lfoot -20.4191 18.389
ltoes 1.4136
